<svg width="507" height="126" viewBox="0 0 507 126" fill="none" xmlns="http://www.w3.org/2000/svg">
<path d="M78.792 31.528C78.792 35.7947 76.744 39.592 72.648 42.92C68.6373 46.248 63.9867 48.68 58.696 50.216C53.4907 51.752 48.456 52.52 43.592 52.52C42.312 52.52 41.3733 52.4773 40.776 52.392V48.04C40.9467 48.04 43.4213 47.656 48.2 46.888C52.9787 46.0347 56.9893 44.584 60.232 42.536C63.56 40.488 65.224 38.184 65.224 35.624C65.224 32.552 62.92 31.016 58.312 31.016C52.0827 31.016 46.1947 33.1493 40.648 37.416C35.1013 41.6827 32.328 46.1627 32.328 50.856C32.328 55.5493 35.2293 58.5787 41.032 59.944C42.312 60.2853 43.1653 60.6267 43.592 60.968C44.0187 61.3093 44.232 61.9067 44.232 62.76C44.232 63.6133 43.8053 64.3387 42.952 64.936C42.184 65.448 40.3493 66.216 37.448 67.24C21.7467 72.616 13.896 80.9787 13.896 92.328C13.896 94.632 14.3227 96.5947 15.176 98.216C20.3813 91.56 27.1227 86.1413 35.4 81.96C43.6773 77.7787 51.656 75.688 59.336 75.688C63.3467 75.688 66.5467 76.584 68.936 78.376C71.3253 80.0827 72.52 82.472 72.52 85.544C72.52 90.3227 70.3013 95.1013 65.864 99.88C61.4267 104.659 55.6667 108.541 48.584 111.528C41.5867 114.6 34.5893 116.136 27.592 116.136C20.68 116.136 15.2187 114.856 11.208 112.296C11.1227 112.381 10.7387 113.021 10.056 114.216C8.34933 117.629 6.89867 120.019 5.704 121.384L1.48 119.592C2.07733 117.203 3.82667 113.576 6.728 108.712C2.80267 104.275 0.84 99.3253 0.84 93.864C0.84 88.3173 3.05867 83.0693 7.496 78.12C12.0187 73.0853 18.2907 68.9467 26.312 65.704C22.3013 62.376 20.296 58.92 20.296 55.336C20.296 50.472 22.856 45.5227 27.976 40.488C33.096 35.368 39.3253 31.2293 46.664 28.072C54.088 24.9147 61.0427 23.336 67.528 23.336C70.9413 23.336 73.672 24.104 75.72 25.64C77.768 27.0907 78.792 29.0533 78.792 31.528ZM51.912 83.368C46.8773 83.368 40.9893 85.288 34.248 89.128C27.592 92.968 22.1733 97.5333 17.992 102.824C21.4053 106.664 26.2267 108.584 32.456 108.584C38.7707 108.584 44.9147 106.579 50.888 102.568C56.9467 98.472 59.976 94.0773 59.976 89.384C59.976 87.5067 59.2507 86.056 57.8 85.032C56.3493 83.9227 54.3867 83.368 51.912 83.368ZM83.649 105.64C80.321 105.64 78.657 103.848 78.657 100.264C78.657 97.2773 79.9797 92.9253 82.625 87.208C83.393 85.672 84.2463 83.8373 85.185 81.704C86.209 79.5707 87.0623 77.5227 87.745 75.56C88.513 73.512 88.897 71.848 88.897 70.568C88.897 69.3733 88.4703 68.776 87.617 68.776C86.593 68.776 85.569 69.416 84.545 70.696C83.521 71.8907 82.5823 73.256 81.729 74.792C80.961 76.328 80.321 77.5653 79.809 78.504C78.529 80.9787 77.0357 83.7093 75.329 86.696C73.6223 89.6827 72.0437 92.2853 70.593 94.504H70.465C70.2943 94.504 70.081 94.4187 69.825 94.248C69.569 93.992 69.4837 93.8213 69.569 93.736C71.1903 91.2613 72.769 88.616 74.305 85.8C75.9263 82.984 77.2917 80.3813 78.401 77.992C79.3397 76.2 80.321 74.3653 81.345 72.488C82.4543 70.5253 83.7343 68.904 85.185 67.624C86.8917 66.1733 88.5983 65.448 90.305 65.448C91.4997 65.448 92.481 65.832 93.249 66.6C94.017 67.2827 94.401 68.3493 94.401 69.8C94.401 70.1413 94.3583 70.4827 94.273 70.824C94.273 71.1653 94.2303 71.5493 94.145 71.976C93.8037 73.5973 93.2063 75.6027 92.353 77.992C91.585 80.296 90.5183 83.0693 89.153 86.312C87.617 89.896 86.465 92.9253 85.697 95.4C85.0143 97.7893 84.673 99.6667 84.673 101.032C84.673 102.653 85.2277 103.464 86.337 103.464C87.5317 103.464 89.4517 102.355 92.097 100.136C94.401 98.088 96.1503 96.0827 97.345 94.12C98.625 92.072 99.4357 90.6213 99.777 89.768C99.6917 89.256 99.6063 88.5307 99.521 87.592C99.4357 86.6533 99.393 85.6293 99.393 84.52C99.393 83.5813 99.393 82.6427 99.393 81.704C99.4783 80.7653 99.5637 79.912 99.649 79.144C100.076 74.7067 101.185 71.3787 102.977 69.16C104.769 66.856 106.39 65.704 107.841 65.704C109.633 65.704 110.529 66.8987 110.529 69.288C110.529 70.6533 110.145 72.4453 109.377 74.664C108.609 76.7973 107.67 78.9733 106.561 81.192C105.537 83.4107 104.556 85.3733 103.617 87.08C102.764 88.7013 102.166 89.7253 101.825 90.152C101.825 90.152 101.953 90.664 102.209 91.688C102.55 92.6267 103.02 93.5653 103.617 94.504C104.3 95.4427 105.196 95.912 106.305 95.912C107.585 95.912 108.822 95.1867 110.017 93.736C111.297 92.2853 112.492 90.5787 113.601 88.616C114.71 86.6533 115.692 84.904 116.545 83.368C116.801 83.112 117.014 82.984 117.185 82.984C117.441 82.984 117.612 83.112 117.697 83.368C117.868 83.5387 117.868 83.7947 117.697 84.136C116.417 86.3547 115.222 88.488 114.113 90.536C113.004 92.584 111.809 94.248 110.529 95.528C109.249 96.7227 107.713 97.32 105.921 97.32C104.3 97.32 103.02 96.68 102.081 95.4C101.228 94.0347 100.716 92.9253 100.545 92.072C99.6917 93.6933 98.369 95.5707 96.577 97.704C94.8703 99.8373 92.865 101.715 90.561 103.336C88.3423 104.872 86.0383 105.64 83.649 105.64ZM124.911 106.28C121.242 106.28 118.639 105.043 117.103 102.568C115.567 100.008 114.799 97.1067 114.799 93.864C114.799 91.9013 115.012 89.9813 115.439 88.104C115.866 86.2267 116.378 84.4773 116.975 82.856C117.914 80.552 119.236 78.12 120.943 75.56C122.735 72.9147 124.868 70.6533 127.343 68.776C129.818 66.8987 132.506 65.96 135.407 65.96C137.796 65.96 139.46 66.6427 140.399 68.008C141.338 69.288 141.807 70.9093 141.807 72.872C141.807 73.2133 141.807 73.5547 141.807 73.896C141.807 74.152 141.764 74.4933 141.679 74.92C141.423 77.224 140.527 79.6133 138.991 82.088C137.455 84.5627 135.535 86.6533 133.231 88.36C130.927 89.9813 128.452 90.792 125.807 90.792C124.271 90.792 122.906 90.3653 121.711 89.512C120.943 92.4133 120.559 95.0587 120.559 97.448C120.559 99.4107 120.9 101.032 121.583 102.312C122.351 103.592 123.503 104.232 125.039 104.232C126.831 104.232 128.964 103.464 131.439 101.928C133.999 100.307 136.73 97.576 139.631 93.736C142.618 89.896 145.647 84.648 148.719 77.992C148.719 77.9067 148.804 77.864 148.975 77.864C149.231 77.864 149.487 77.992 149.743 78.248C150.084 78.4187 150.17 78.5893 149.999 78.76C145.818 88.232 141.38 95.1867 136.687 99.624C132.079 104.061 128.154 106.28 124.911 106.28ZM125.167 88.744C127.044 88.744 128.879 88.0613 130.671 86.696C132.463 85.2453 134.084 83.4533 135.535 81.32C136.986 79.1013 138.138 76.8827 138.991 74.664C139.332 73.7253 139.503 72.6587 139.503 71.464C139.503 70.3547 139.29 69.416 138.863 68.648C138.522 67.7947 137.882 67.368 136.943 67.368C135.407 67.368 133.743 68.3493 131.951 70.312C130.159 72.1893 128.495 74.4507 126.959 77.096C125.423 79.656 124.271 82.0027 123.503 84.136C123.247 84.7333 122.991 85.3733 122.735 86.056C122.564 86.6533 122.394 87.2933 122.223 87.976C123.247 88.488 124.228 88.744 125.167 88.744ZM171.179 105.64C167.595 105.64 165.803 103.635 165.803 99.624C165.803 98.088 166.102 96.2533 166.699 94.12C167.296 91.9867 168.235 89.64 169.515 87.08C170.198 85.6293 171.094 83.9227 172.203 81.96C173.398 79.912 174.464 77.9067 175.403 75.944C176.342 73.9813 176.811 72.4453 176.811 71.336C176.811 70.2267 176.214 69.672 175.019 69.672C173.398 69.672 171.691 70.568 169.899 72.36C168.192 74.0667 166.486 76.2853 164.779 79.016C163.072 81.7467 161.451 84.6053 159.915 87.592C158.379 90.5787 157.056 93.3947 155.947 96.04C154.838 98.6 154.027 100.563 153.515 101.928C153.003 103.208 152.278 104.019 151.339 104.36C150.4 104.701 149.376 104.872 148.267 104.872C147.243 104.872 146.262 105.043 145.323 105.384C146.518 102.653 147.499 100.435 148.267 98.728C149.035 97.0213 149.846 95.3147 150.699 93.608C151.552 91.816 152.576 89.4267 153.771 86.44C154.454 84.904 155.222 83.1547 156.075 81.192C156.928 79.144 157.654 77.1813 158.251 75.304C158.934 73.3413 159.275 71.8053 159.275 70.696C159.275 69.416 158.848 68.776 157.995 68.776C156.971 68.776 155.947 69.416 154.923 70.696C153.899 71.976 152.96 73.4267 152.107 75.048C151.339 76.584 150.699 77.8213 150.187 78.76C148.907 81.2347 147.627 83.6667 146.347 86.056C145.067 88.4453 143.616 90.7493 141.995 92.968H141.867C141.611 92.968 141.312 92.8827 140.971 92.712C140.715 92.5413 140.63 92.4133 140.715 92.328C142.166 90.024 143.531 87.72 144.811 85.416C146.176 83.112 147.414 80.808 148.523 78.504C149.462 76.712 150.486 74.8347 151.595 72.872C152.704 70.824 153.984 69.1173 155.435 67.752C156.886 66.3867 158.55 65.704 160.427 65.704C161.28 65.704 162.262 65.9173 163.371 66.344C164.566 66.856 165.163 68.008 165.163 69.8C165.163 70.7387 164.992 71.8907 164.651 73.256C164.31 74.6213 163.84 76.1573 163.243 77.864C165.462 74.7067 167.808 72.0187 170.283 69.8C172.758 67.496 175.019 66.344 177.067 66.344C180.31 66.344 181.931 67.88 181.931 70.952C181.931 72.8293 181.376 75.1333 180.267 77.864C179.926 78.8027 179.286 80.296 178.347 82.344C177.494 84.3067 176.598 86.5253 175.659 89C174.806 91.3893 174.038 93.6933 173.355 95.912C172.672 98.1307 172.331 99.9653 172.331 101.416C172.331 102.952 172.8 103.72 173.739 103.72C174.336 103.72 175.104 103.464 176.043 102.952C177.067 102.355 178.262 101.416 179.627 100.136C182.102 97.9173 184.406 95.1013 186.539 91.688C188.758 88.2747 191.36 83.7093 194.347 77.992C194.347 77.8213 194.432 77.736 194.603 77.736C194.859 77.736 195.115 77.864 195.371 78.12C195.627 78.376 195.67 78.5893 195.499 78.76C192.427 84.7333 189.611 89.7253 187.051 93.736C184.576 97.6613 182.059 100.648 179.499 102.696C177.024 104.659 174.251 105.64 171.179 105.64ZM192.999 105.512C191.036 105.512 189.628 104.787 188.775 103.336C187.922 101.885 187.495 100.179 187.495 98.216C187.495 95.5707 188.05 92.9253 189.159 90.28C190.951 85.5867 192.615 81.5333 194.151 78.12C195.772 74.7067 197.394 71.4213 199.015 68.264H195.559C195.218 68.264 195.047 68.0933 195.047 67.752C195.047 67.496 195.175 67.1973 195.431 66.856C195.687 66.5147 195.986 66.344 196.327 66.344H200.039L209.255 47.912C210.706 47.5707 212.242 47.1867 213.863 46.76C215.57 46.248 217.106 45.6933 218.471 45.096C217.106 47.4 215.228 50.4293 212.839 54.184C210.45 57.8533 208.018 61.9067 205.543 66.344H214.631C214.972 66.344 215.143 66.5147 215.143 66.856C215.143 67.112 215.015 67.4107 214.759 67.752C214.503 68.0933 214.204 68.264 213.863 68.264H204.391C201.746 72.9573 199.356 77.8213 197.223 82.856C195.175 87.8907 193.81 92.6267 193.127 97.064C193.042 97.4053 192.999 97.7893 192.999 98.216C192.999 98.5573 192.999 98.856 192.999 99.112C192.999 101.416 193.767 102.568 195.303 102.568C196.242 102.568 197.308 102.184 198.503 101.416C199.698 100.563 200.85 99.5813 201.959 98.472C204.69 95.7413 207.036 92.712 208.999 89.384C211.047 86.056 212.924 82.6853 214.631 79.272C214.802 79.1013 214.93 79.016 215.015 79.016C215.612 79.016 215.911 79.3573 215.911 80.04C215.826 80.04 215.57 80.424 215.143 81.192C214.802 81.96 214.588 82.3867 214.503 82.472C212.967 85.4587 211.388 88.3173 209.767 91.048C208.146 93.7787 206.183 96.3813 203.879 98.856C202.599 100.221 200.978 101.672 199.015 103.208C197.052 104.744 195.047 105.512 192.999 105.512Z" fill="#FFA500"/>
<path d="M253.295 125.224C251.759 125.224 250.138 125.096 248.431 124.84C241.519 123.816 235.546 121.171 230.511 116.904C225.562 112.637 221.722 107.389 218.991 101.16C216.346 94.8453 215.023 88.1893 215.023 81.192C215.023 75.4747 215.962 69.928 217.839 64.552C219.631 59.3467 221.935 54.2693 224.751 49.32C227.567 44.3707 231.151 39.72 235.503 35.368C239.855 31.016 245.188 27.1333 251.503 23.72C257.903 20.3067 265.583 17.5333 274.543 15.4C283.503 13.1813 294.042 11.816 306.159 11.304C307.354 11.2187 308.762 11.176 310.383 11.176C312.09 11.176 313.796 11.176 315.503 11.176C317.892 11.176 320.196 11.176 322.415 11.176C324.634 11.176 326.383 11.2187 327.663 11.304C328.346 11.304 328.687 11.6453 328.687 12.328C328.687 12.9253 328.346 13.224 327.663 13.224C324.591 13.3093 322.116 14.376 320.239 16.424C318.362 18.472 316.484 21.1173 314.607 24.36C313.583 26.4933 312.73 28.9253 312.047 31.656C316.399 33.0213 320.452 35.1973 324.207 38.184C327.962 41.0853 331.162 44.456 333.807 48.296C337.306 42.3227 340.932 36.52 344.687 30.888C348.527 25.256 352.452 20.136 356.463 15.528C361.242 10.0667 365.978 6.14133 370.671 3.752C375.364 1.27733 379.588 0.0399933 383.343 0.0399933C387.695 0.0399933 391.194 1.44799 393.839 4.26399C396.57 6.99466 397.935 10.7067 397.935 15.4C397.935 20.3493 396.058 26.152 392.303 32.808C388.634 39.464 382.447 46.4187 373.743 53.672C369.391 57.256 364.442 60.456 358.895 63.272C353.434 66.0027 347.716 68.3067 341.743 70.184V72.104C341.743 77.8213 340.89 82.2587 339.183 85.416C337.476 88.5733 335.386 90.7493 332.911 91.944C330.522 93.1387 328.26 93.736 326.127 93.736C324.506 93.736 323.098 93.5227 321.903 93.096C320.794 92.584 320.154 92.0293 319.983 91.432V91.176C319.983 90.7493 320.196 90.536 320.623 90.536C321.05 90.4507 321.306 90.6213 321.391 91.048C321.476 91.1333 321.946 91.3467 322.799 91.688C323.652 92.0293 324.762 92.2 326.127 92.2C326.81 92.2 327.535 92.1573 328.303 92.072C329.071 91.9013 329.882 91.6453 330.735 91.304C333.124 90.3653 335.3 88.488 337.263 85.672C339.226 82.856 340.207 78.3333 340.207 72.104V70.696C335.087 72.232 329.796 73.384 324.335 74.152C323.482 75.432 322.628 76.712 321.775 77.992C320.922 79.1867 320.026 80.3813 319.087 81.576C315.162 87.1227 311.194 92.1573 307.183 96.68C303.172 101.203 299.247 104.744 295.407 107.304C291.652 109.949 288.111 111.187 284.783 111.016C284.1 111.016 283.759 110.76 283.759 110.248C283.759 109.907 283.93 109.608 284.271 109.352C287.599 107.048 290.287 104.061 292.335 100.392C294.468 96.7227 296.132 92.6267 297.327 88.104C298.607 83.496 299.588 78.8027 300.271 74.024C294.724 73.1707 289.562 71.7627 284.783 69.8C280.004 67.752 276.207 65.1067 273.391 61.864C270.575 58.6213 269.295 54.824 269.551 50.472C269.892 45.608 271.428 41.64 274.159 38.568C276.89 35.496 280.303 33.2347 284.399 31.784C288.58 30.3333 292.932 29.608 297.455 29.608C299.162 29.608 300.826 29.6933 302.447 29.864C304.068 30.0347 305.69 30.2907 307.311 30.632C307.738 29.352 308.25 28.2427 308.847 27.304C310.127 25.0853 311.919 22.6107 314.223 19.88C316.527 17.064 319.087 15.0587 321.903 13.864C319.855 13.6933 317.764 13.5653 315.631 13.48C313.583 13.3947 311.492 13.352 309.359 13.352C300.058 13.352 290.842 14.3333 281.711 16.296C272.666 18.1733 264.132 21.2027 256.111 25.384C248.175 29.48 241.178 34.856 235.119 41.512C229.06 48.168 224.41 56.1893 221.167 65.576C219.204 71.2933 218.223 77.0107 218.223 82.728C218.223 89.2133 219.418 95.3573 221.807 101.16C224.282 106.963 227.78 111.827 232.303 115.752C236.826 119.677 242.287 122.109 248.687 123.048C249.455 123.133 250.223 123.176 250.991 123.176C251.759 123.261 252.527 123.304 253.295 123.304C258.756 123.304 263.791 122.024 268.399 119.464C273.007 116.904 276.036 113.064 277.487 107.944C277.572 107.517 277.871 107.304 278.383 107.304C279.151 107.304 279.45 107.688 279.279 108.456C278.255 112.211 276.42 115.325 273.775 117.8C271.13 120.275 268.015 122.109 264.431 123.304C260.847 124.584 257.135 125.224 253.295 125.224ZM341.615 68.52C352.196 65.1067 361.668 60.072 370.031 53.416C376.004 48.6373 380.868 43.816 384.623 38.952C388.463 34.088 391.279 29.5227 393.071 25.256C394.948 20.904 395.887 17.1067 395.887 13.864C395.887 11.048 395.204 8.82933 393.839 7.20799C392.474 5.50133 390.511 4.64799 387.951 4.64799C385.22 4.64799 381.807 5.75733 377.711 7.976C373.7 10.1947 369.092 13.9067 363.887 19.112C359.364 23.72 354.884 29.096 350.447 35.24C346.01 41.384 341.658 47.6987 337.391 54.184C338.5 56.4027 339.396 58.7493 340.079 61.224C340.847 63.6133 341.359 66.0453 341.615 68.52ZM300.527 72.36C301.21 67.752 301.722 63.2293 302.063 58.792C302.49 54.2693 302.959 50.216 303.471 46.632C303.898 43.9013 304.367 41.2987 304.879 38.824C305.391 36.3493 306.031 34.0453 306.799 31.912C304.41 31.4 301.892 31.144 299.247 31.144C295.236 31.144 291.354 31.8267 287.599 33.192C283.93 34.472 280.9 36.5627 278.511 39.464C276.122 42.28 274.756 45.9493 274.415 50.472C274.159 54.3973 275.14 57.8533 277.359 60.84C279.578 63.8267 282.692 66.3013 286.703 68.264C290.714 70.1413 295.322 71.5067 300.527 72.36ZM309.231 73.256C310.938 73.3413 312.644 73.384 314.351 73.384C316.143 73.2987 317.892 73.1707 319.599 73C321.818 69.3307 323.994 65.5333 326.127 61.608C328.346 57.5973 330.65 53.6293 333.039 49.704C330.394 45.9493 327.236 42.6213 323.567 39.72C319.983 36.7333 316.058 34.5573 311.791 33.192C311.023 37.288 310.554 41.768 310.383 46.632C310.212 51.496 310.084 56.2747 309.999 60.968C309.999 65.576 309.743 69.672 309.231 73.256ZM325.487 72.36C327.962 71.9333 330.394 71.464 332.783 70.952C335.258 70.44 337.69 69.8 340.079 69.032C339.738 64.5093 338.5 60.072 336.367 55.72L325.487 72.36ZM294.127 105C297.882 103.635 301.807 100.179 305.903 94.632C309.999 89 314.266 82.3867 318.703 74.792C317.082 74.8773 315.46 74.9627 313.839 75.048C312.218 75.048 310.639 75.0053 309.103 74.92C308.25 80.3813 306.714 85.7147 304.495 90.92C302.276 96.1253 298.82 100.819 294.127 105ZM357.536 106.28C353.867 106.28 351.264 105.043 349.728 102.568C348.192 100.008 347.424 97.1067 347.424 93.864C347.424 91.9013 347.637 89.9813 348.064 88.104C348.491 86.2267 349.003 84.4773 349.6 82.856C350.539 80.552 351.861 78.12 353.568 75.56C355.36 72.9147 357.493 70.6533 359.968 68.776C362.443 66.8987 365.131 65.96 368.032 65.96C370.421 65.96 372.085 66.6427 373.024 68.008C373.963 69.288 374.432 70.9093 374.432 72.872C374.432 73.2133 374.432 73.5547 374.432 73.896C374.432 74.152 374.389 74.4933 374.304 74.92C374.048 77.224 373.152 79.6133 371.616 82.088C370.08 84.5627 368.16 86.6533 365.856 88.36C363.552 89.9813 361.077 90.792 358.432 90.792C356.896 90.792 355.531 90.3653 354.336 89.512C353.568 92.4133 353.184 95.0587 353.184 97.448C353.184 99.4107 353.525 101.032 354.208 102.312C354.976 103.592 356.128 104.232 357.664 104.232C359.456 104.232 361.589 103.464 364.064 101.928C366.624 100.307 369.355 97.576 372.256 93.736C375.243 89.896 378.272 84.648 381.344 77.992C381.344 77.9067 381.429 77.864 381.6 77.864C381.856 77.864 382.112 77.992 382.368 78.248C382.709 78.4187 382.795 78.5893 382.624 78.76C378.443 88.232 374.005 95.1867 369.312 99.624C364.704 104.061 360.779 106.28 357.536 106.28ZM357.792 88.744C359.669 88.744 361.504 88.0613 363.296 86.696C365.088 85.2453 366.709 83.4533 368.16 81.32C369.611 79.1013 370.763 76.8827 371.616 74.664C371.957 73.7253 372.128 72.6587 372.128 71.464C372.128 70.3547 371.915 69.416 371.488 68.648C371.147 67.7947 370.507 67.368 369.568 67.368C368.032 67.368 366.368 68.3493 364.576 70.312C362.784 72.1893 361.12 74.4507 359.584 77.096C358.048 79.656 356.896 82.0027 356.128 84.136C355.872 84.7333 355.616 85.3733 355.36 86.056C355.189 86.6533 355.019 87.2933 354.848 87.976C355.872 88.488 356.853 88.744 357.792 88.744ZM403.804 105.64C400.22 105.64 398.428 103.635 398.428 99.624C398.428 98.088 398.727 96.2533 399.324 94.12C399.921 91.9867 400.86 89.64 402.14 87.08C402.823 85.6293 403.719 83.9227 404.828 81.96C406.023 79.912 407.089 77.9067 408.028 75.944C408.967 73.9813 409.436 72.4453 409.436 71.336C409.436 70.2267 408.839 69.672 407.644 69.672C406.023 69.672 404.316 70.568 402.524 72.36C400.817 74.0667 399.111 76.2853 397.404 79.016C395.697 81.7467 394.076 84.6053 392.54 87.592C391.004 90.5787 389.681 93.3947 388.572 96.04C387.463 98.6 386.652 100.563 386.14 101.928C385.628 103.208 384.903 104.019 383.964 104.36C383.025 104.701 382.001 104.872 380.892 104.872C379.868 104.872 378.887 105.043 377.948 105.384C379.143 102.653 380.124 100.435 380.892 98.728C381.66 97.0213 382.471 95.3147 383.324 93.608C384.177 91.816 385.201 89.4267 386.396 86.44C387.079 84.904 387.847 83.1547 388.7 81.192C389.553 79.144 390.279 77.1813 390.876 75.304C391.559 73.3413 391.9 71.8053 391.9 70.696C391.9 69.416 391.473 68.776 390.62 68.776C389.596 68.776 388.572 69.416 387.548 70.696C386.524 71.976 385.585 73.4267 384.732 75.048C383.964 76.584 383.324 77.8213 382.812 78.76C381.532 81.2347 380.252 83.6667 378.972 86.056C377.692 88.4453 376.241 90.7493 374.62 92.968H374.492C374.236 92.968 373.937 92.8827 373.596 92.712C373.34 92.5413 373.255 92.4133 373.34 92.328C374.791 90.024 376.156 87.72 377.436 85.416C378.801 83.112 380.039 80.808 381.148 78.504C382.087 76.712 383.111 74.8347 384.22 72.872C385.329 70.824 386.609 69.1173 388.06 67.752C389.511 66.3867 391.175 65.704 393.052 65.704C393.905 65.704 394.887 65.9173 395.996 66.344C397.191 66.856 397.788 68.008 397.788 69.8C397.788 70.7387 397.617 71.8907 397.276 73.256C396.935 74.6213 396.465 76.1573 395.868 77.864C398.087 74.7067 400.433 72.0187 402.908 69.8C405.383 67.496 407.644 66.344 409.692 66.344C412.935 66.344 414.556 67.88 414.556 70.952C414.556 72.8293 414.001 75.1333 412.892 77.864C412.551 78.8027 411.911 80.296 410.972 82.344C410.119 84.3067 409.223 86.5253 408.284 89C407.431 91.3893 406.663 93.6933 405.98 95.912C405.297 98.1307 404.956 99.9653 404.956 101.416C404.956 102.952 405.425 103.72 406.364 103.72C406.961 103.72 407.729 103.464 408.668 102.952C409.692 102.355 410.887 101.416 412.252 100.136C414.727 97.9173 417.031 95.1013 419.164 91.688C421.383 88.2747 423.985 83.7093 426.972 77.992C426.972 77.8213 427.057 77.736 427.228 77.736C427.484 77.736 427.74 77.864 427.996 78.12C428.252 78.376 428.295 78.5893 428.124 78.76C425.052 84.7333 422.236 89.7253 419.676 93.736C417.201 97.6613 414.684 100.648 412.124 102.696C409.649 104.659 406.876 105.64 403.804 105.64ZM432.152 105.64C428.824 105.64 427.16 103.848 427.16 100.264C427.16 97.2773 428.483 92.9253 431.128 87.208C431.896 85.672 432.749 83.8373 433.688 81.704C434.712 79.5707 435.565 77.5227 436.248 75.56C437.016 73.512 437.4 71.848 437.4 70.568C437.4 69.3733 436.973 68.776 436.12 68.776C435.096 68.776 434.072 69.416 433.048 70.696C432.024 71.976 431.085 73.4267 430.232 75.048C429.464 76.584 428.824 77.8213 428.312 78.76C427.032 81.2347 425.581 83.9227 423.96 86.824C422.339 89.7253 420.717 92.2853 419.096 94.504H418.968C418.797 94.504 418.541 94.4187 418.2 94.248C417.944 93.992 417.859 93.8213 417.944 93.736C419.565 91.5173 421.144 88.9573 422.68 86.056C424.301 83.1547 425.667 80.5093 426.776 78.12C427.715 76.328 428.696 74.4933 429.72 72.616C430.829 70.6533 432.109 69.032 433.56 67.752C435.011 66.3867 436.675 65.704 438.552 65.704C441.709 65.704 443.288 66.9413 443.288 69.416C443.288 71.0373 442.776 73.2133 441.752 75.944C440.728 78.6747 439.363 82.1307 437.656 86.312C436.12 89.896 434.968 92.9253 434.2 95.4C433.517 97.7893 433.176 99.6667 433.176 101.032C433.176 102.653 433.731 103.464 434.84 103.464C436.035 103.464 437.955 102.355 440.6 100.136C442.904 98.088 445.123 95.5707 447.256 92.584C449.389 89.512 451.693 85.3733 454.168 80.168C454.851 78.8027 455.533 77.096 456.216 75.048C456.984 72.9147 457.624 71.0373 458.136 69.416C458.733 67.7947 459.032 66.984 459.032 66.984C460.483 66.6427 462.104 66.216 463.896 65.704C465.688 65.1067 467.267 64.5093 468.632 63.912C467.779 64.7653 466.541 66.6853 464.92 69.672C463.384 72.6587 461.763 76.072 460.056 79.912C458.435 83.6667 457.027 87.336 455.832 90.92C454.381 95.016 453.656 98.3013 453.656 100.776C453.656 102.824 454.296 103.848 455.576 103.848C456.173 103.848 456.899 103.592 457.752 103.08C458.691 102.568 459.8 101.757 461.08 100.648C462.189 99.7093 463.213 98.6 464.152 97.32C465.176 96.04 466.157 94.7173 467.096 93.352C468.376 91.4747 469.699 89.2987 471.064 86.824C472.515 84.3493 474.093 81.448 475.8 78.12C475.971 77.864 476.099 77.736 476.184 77.736C476.44 77.736 476.653 77.864 476.824 78.12C477.08 78.2907 477.165 78.4613 477.08 78.632C472.472 87.6773 468.419 94.4613 464.92 98.984C461.421 103.421 457.624 105.64 453.528 105.64C451.907 105.64 450.712 105.085 449.944 103.976C449.261 102.867 448.92 101.373 448.92 99.496C448.92 98.0453 449.091 96.424 449.432 94.632C449.773 92.84 450.243 91.0053 450.84 89.128C447.683 94.5893 444.653 98.728 441.752 101.544C438.851 104.275 435.651 105.64 432.152 105.64ZM481.411 106.28C477.742 106.28 475.139 105.043 473.603 102.568C472.067 100.008 471.299 97.1067 471.299 93.864C471.299 91.9013 471.512 89.9813 471.939 88.104C472.366 86.2267 472.878 84.4773 473.475 82.856C474.414 80.552 475.736 78.12 477.443 75.56C479.235 72.9147 481.368 70.6533 483.843 68.776C486.318 66.8987 489.006 65.96 491.907 65.96C494.296 65.96 495.96 66.6427 496.899 68.008C497.838 69.288 498.307 70.9093 498.307 72.872C498.307 73.2133 498.307 73.5547 498.307 73.896C498.307 74.152 498.264 74.4933 498.179 74.92C497.923 77.224 497.027 79.6133 495.491 82.088C493.955 84.5627 492.035 86.6533 489.731 88.36C487.427 89.9813 484.952 90.792 482.307 90.792C480.771 90.792 479.406 90.3653 478.211 89.512C477.443 92.4133 477.059 95.0587 477.059 97.448C477.059 99.4107 477.4 101.032 478.083 102.312C478.851 103.592 480.003 104.232 481.539 104.232C483.331 104.232 485.464 103.464 487.939 101.928C490.499 100.307 493.23 97.576 496.131 93.736C499.118 89.896 502.147 84.648 505.219 77.992C505.219 77.9067 505.304 77.864 505.475 77.864C505.731 77.864 505.987 77.992 506.243 78.248C506.584 78.4187 506.67 78.5893 506.499 78.76C502.318 88.232 497.88 95.1867 493.187 99.624C488.579 104.061 484.654 106.28 481.411 106.28ZM481.667 88.744C483.544 88.744 485.379 88.0613 487.171 86.696C488.963 85.2453 490.584 83.4533 492.035 81.32C493.486 79.1013 494.638 76.8827 495.491 74.664C495.832 73.7253 496.003 72.6587 496.003 71.464C496.003 70.3547 495.79 69.416 495.363 68.648C495.022 67.7947 494.382 67.368 493.443 67.368C491.907 67.368 490.243 68.3493 488.451 70.312C486.659 72.1893 484.995 74.4507 483.459 77.096C481.923 79.656 480.771 82.0027 480.003 84.136C479.747 84.7333 479.491 85.3733 479.235 86.056C479.064 86.6533 478.894 87.2933 478.723 87.976C479.747 88.488 480.728 88.744 481.667 88.744Z" fill="white"/>
</svg>
