<svg width="254" height="64" viewBox="0 0 254 64" fill="none" xmlns="http://www.w3.org/2000/svg">
<path d="M39.896 16.264C39.896 18.3973 38.872 20.296 36.824 21.96C34.8187 23.624 32.4933 24.84 29.848 25.608C27.2453 26.376 24.728 26.76 22.296 26.76C21.656 26.76 21.1867 26.7387 20.888 26.696V24.52C20.9733 24.52 22.2107 24.328 24.6 23.944C26.9893 23.5173 28.9947 22.792 30.616 21.768C32.28 20.744 33.112 19.592 33.112 18.312C33.112 16.776 31.96 16.008 29.656 16.008C26.5413 16.008 23.5973 17.0747 20.824 19.208C18.0507 21.3413 16.664 23.5813 16.664 25.928C16.664 28.2747 18.1147 29.7893 21.016 30.472C21.656 30.6427 22.0827 30.8133 22.296 30.984C22.5093 31.1547 22.616 31.4533 22.616 31.88C22.616 32.3067 22.4027 32.6693 21.976 32.968C21.592 33.224 20.6747 33.608 19.224 34.12C11.3733 36.808 7.448 40.9893 7.448 46.664C7.448 47.816 7.66133 48.7973 8.088 49.608C10.6907 46.28 14.0613 43.5707 18.2 41.48C22.3387 39.3893 26.328 38.344 30.168 38.344C32.1733 38.344 33.7733 38.792 34.968 39.688C36.1627 40.5413 36.76 41.736 36.76 43.272C36.76 45.6613 35.6507 48.0507 33.432 50.44C31.2133 52.8293 28.3333 54.7707 24.792 56.264C21.2933 57.8 17.7947 58.568 14.296 58.568C10.84 58.568 8.10933 57.928 6.104 56.648C6.06133 56.6907 5.86933 57.0107 5.528 57.608C4.67467 59.3147 3.94933 60.5093 3.352 61.192L1.24 60.296C1.53867 59.1013 2.41333 57.288 3.864 54.856C1.90133 52.6373 0.92 50.1627 0.92 47.432C0.92 44.6587 2.02933 42.0347 4.248 39.56C6.50933 37.0427 9.64533 34.9733 13.656 33.352C11.6507 31.688 10.648 29.96 10.648 28.168C10.648 25.736 11.928 23.2613 14.488 20.744C17.048 18.184 20.1627 16.1147 23.832 14.536C27.544 12.9573 31.0213 12.168 34.264 12.168C35.9707 12.168 37.336 12.552 38.36 13.32C39.384 14.0453 39.896 15.0267 39.896 16.264ZM26.456 42.184C23.9387 42.184 20.9947 43.144 17.624 45.064C14.296 46.984 11.5867 49.2667 9.496 51.912C11.2027 53.832 13.6133 54.792 16.728 54.792C19.8853 54.792 22.9573 53.7893 25.944 51.784C28.9733 49.736 30.488 47.5387 30.488 45.192C30.488 44.2533 30.1253 43.528 29.4 43.016C28.6747 42.4613 27.6933 42.184 26.456 42.184ZM42.3245 53.32C40.6605 53.32 39.8285 52.424 39.8285 50.632C39.8285 49.1387 40.4898 46.9627 41.8125 44.104C42.1965 43.336 42.6232 42.4187 43.0925 41.352C43.6045 40.2853 44.0312 39.2613 44.3725 38.28C44.7565 37.256 44.9485 36.424 44.9485 35.784C44.9485 35.1867 44.7352 34.888 44.3085 34.888C43.7965 34.888 43.2845 35.208 42.7725 35.848C42.2605 36.4453 41.7912 37.128 41.3645 37.896C40.9805 38.664 40.6605 39.2827 40.4045 39.752C39.7645 40.9893 39.0178 42.3547 38.1645 43.848C37.3112 45.3413 36.5218 46.6427 35.7965 47.752H35.7325C35.6472 47.752 35.5405 47.7093 35.4125 47.624C35.2845 47.496 35.2418 47.4107 35.2845 47.368C36.0952 46.1307 36.8845 44.808 37.6525 43.4C38.4632 41.992 39.1458 40.6907 39.7005 39.496C40.1698 38.6 40.6605 37.6827 41.1725 36.744C41.7272 35.7627 42.3672 34.952 43.0925 34.312C43.9458 33.5867 44.7992 33.224 45.6525 33.224C46.2498 33.224 46.7405 33.416 47.1245 33.8C47.5085 34.1413 47.7005 34.6747 47.7005 35.4C47.7005 35.5707 47.6792 35.7413 47.6365 35.912C47.6365 36.0827 47.6152 36.2747 47.5725 36.488C47.4018 37.2987 47.1032 38.3013 46.6765 39.496C46.2925 40.648 45.7592 42.0347 45.0765 43.656C44.3085 45.448 43.7325 46.9627 43.3485 48.2C43.0072 49.3947 42.8365 50.3333 42.8365 51.016C42.8365 51.8267 43.1138 52.232 43.6685 52.232C44.2658 52.232 45.2258 51.6773 46.5485 50.568C47.7005 49.544 48.5752 48.5413 49.1725 47.56C49.8125 46.536 50.2178 45.8107 50.3885 45.384C50.3458 45.128 50.3032 44.7653 50.2605 44.296C50.2178 43.8267 50.1965 43.3147 50.1965 42.76C50.1965 42.2907 50.1965 41.8213 50.1965 41.352C50.2392 40.8827 50.2818 40.456 50.3245 40.072C50.5378 37.8533 51.0925 36.1893 51.9885 35.08C52.8845 33.928 53.6952 33.352 54.4205 33.352C55.3165 33.352 55.7645 33.9493 55.7645 35.144C55.7645 35.8267 55.5725 36.7227 55.1885 37.832C54.8045 38.8987 54.3352 39.9867 53.7805 41.096C53.2685 42.2053 52.7778 43.1867 52.3085 44.04C51.8818 44.8507 51.5832 45.3627 51.4125 45.576C51.4125 45.576 51.4765 45.832 51.6045 46.344C51.7752 46.8133 52.0098 47.2827 52.3085 47.752C52.6498 48.2213 53.0978 48.456 53.6525 48.456C54.2925 48.456 54.9112 48.0933 55.5085 47.368C56.1485 46.6427 56.7458 45.7893 57.3005 44.808C57.8552 43.8267 58.3458 42.952 58.7725 42.184C58.9005 42.056 59.0072 41.992 59.0925 41.992C59.2205 41.992 59.3058 42.056 59.3485 42.184C59.4338 42.2693 59.4338 42.3973 59.3485 42.568C58.7085 43.6773 58.1112 44.744 57.5565 45.768C57.0018 46.792 56.4045 47.624 55.7645 48.264C55.1245 48.8613 54.3565 49.16 53.4605 49.16C52.6498 49.16 52.0098 48.84 51.5405 48.2C51.1138 47.5173 50.8578 46.9627 50.7725 46.536C50.3458 47.3467 49.6845 48.2853 48.7885 49.352C47.9352 50.4187 46.9325 51.3573 45.7805 52.168C44.6712 52.936 43.5192 53.32 42.3245 53.32ZM62.9555 53.64C61.1208 53.64 59.8195 53.0213 59.0515 51.784C58.2835 50.504 57.8995 49.0533 57.8995 47.432C57.8995 46.4507 58.0062 45.4907 58.2195 44.552C58.4328 43.6133 58.6888 42.7387 58.9875 41.928C59.4568 40.776 60.1182 39.56 60.9715 38.28C61.8675 36.9573 62.9342 35.8267 64.1715 34.888C65.4088 33.9493 66.7528 33.48 68.2035 33.48C69.3982 33.48 70.2302 33.8213 70.6995 34.504C71.1688 35.144 71.4035 35.9547 71.4035 36.936C71.4035 37.1067 71.4035 37.2773 71.4035 37.448C71.4035 37.576 71.3822 37.7467 71.3395 37.96C71.2115 39.112 70.7635 40.3067 69.9955 41.544C69.2275 42.7813 68.2675 43.8267 67.1155 44.68C65.9635 45.4907 64.7262 45.896 63.4035 45.896C62.6355 45.896 61.9528 45.6827 61.3555 45.256C60.9715 46.7067 60.7795 48.0293 60.7795 49.224C60.7795 50.2053 60.9502 51.016 61.2915 51.656C61.6755 52.296 62.2515 52.616 63.0195 52.616C63.9155 52.616 64.9822 52.232 66.2195 51.464C67.4995 50.6533 68.8648 49.288 70.3155 47.368C71.8088 45.448 73.3235 42.824 74.8595 39.496C74.8595 39.4533 74.9022 39.432 74.9875 39.432C75.1155 39.432 75.2435 39.496 75.3715 39.624C75.5422 39.7093 75.5848 39.7947 75.4995 39.88C73.4088 44.616 71.1902 48.0933 68.8435 50.312C66.5395 52.5307 64.5768 53.64 62.9555 53.64ZM63.0835 44.872C64.0222 44.872 64.9395 44.5307 65.8355 43.848C66.7315 43.1227 67.5422 42.2267 68.2675 41.16C68.9928 40.0507 69.5688 38.9413 69.9955 37.832C70.1662 37.3627 70.2515 36.8293 70.2515 36.232C70.2515 35.6773 70.1448 35.208 69.9315 34.824C69.7608 34.3973 69.4408 34.184 68.9715 34.184C68.2035 34.184 67.3715 34.6747 66.4755 35.656C65.5795 36.5947 64.7475 37.7253 63.9795 39.048C63.2115 40.328 62.6355 41.5013 62.2515 42.568C62.1235 42.8667 61.9955 43.1867 61.8675 43.528C61.7822 43.8267 61.6968 44.1467 61.6115 44.488C62.1235 44.744 62.6142 44.872 63.0835 44.872ZM86.0895 53.32C84.2975 53.32 83.4015 52.3173 83.4015 50.312C83.4015 49.544 83.5508 48.6267 83.8495 47.56C84.1482 46.4933 84.6175 45.32 85.2575 44.04C85.5988 43.3147 86.0468 42.4613 86.6015 41.48C87.1988 40.456 87.7322 39.4533 88.2015 38.472C88.6708 37.4907 88.9055 36.7227 88.9055 36.168C88.9055 35.6133 88.6068 35.336 88.0095 35.336C87.1988 35.336 86.3455 35.784 85.4495 36.68C84.5962 37.5333 83.7428 38.6427 82.8895 40.008C82.0362 41.3733 81.2255 42.8027 80.4575 44.296C79.6895 45.7893 79.0282 47.1973 78.4735 48.52C77.9188 49.8 77.5135 50.7813 77.2575 51.464C77.0015 52.104 76.6388 52.5093 76.1695 52.68C75.7002 52.8507 75.1882 52.936 74.6335 52.936C74.1215 52.936 73.6308 53.0213 73.1615 53.192C73.7588 51.8267 74.2495 50.7173 74.6335 49.864C75.0175 49.0107 75.4228 48.1573 75.8495 47.304C76.2762 46.408 76.7882 45.2133 77.3855 43.72C77.7268 42.952 78.1108 42.0773 78.5375 41.096C78.9642 40.072 79.3268 39.0907 79.6255 38.152C79.9668 37.1707 80.1375 36.4027 80.1375 35.848C80.1375 35.208 79.9242 34.888 79.4975 34.888C78.9855 34.888 78.4735 35.208 77.9615 35.848C77.4495 36.488 76.9802 37.2133 76.5535 38.024C76.1695 38.792 75.8495 39.4107 75.5935 39.88C74.9535 41.1173 74.3135 42.3333 73.6735 43.528C73.0335 44.7227 72.3082 45.8747 71.4975 46.984H71.4335C71.3055 46.984 71.1562 46.9413 70.9855 46.856C70.8575 46.7707 70.8148 46.7067 70.8575 46.664C71.5828 45.512 72.2655 44.36 72.9055 43.208C73.5882 42.056 74.2068 40.904 74.7615 39.752C75.2308 38.856 75.7428 37.9173 76.2975 36.936C76.8522 35.912 77.4922 35.0587 78.2175 34.376C78.9428 33.6933 79.7748 33.352 80.7135 33.352C81.1402 33.352 81.6308 33.4587 82.1855 33.672C82.7828 33.928 83.0815 34.504 83.0815 35.4C83.0815 35.8693 82.9962 36.4453 82.8255 37.128C82.6548 37.8107 82.4202 38.5787 82.1215 39.432C83.2308 37.8533 84.4042 36.5093 85.6415 35.4C86.8788 34.248 88.0095 33.672 89.0335 33.672C90.6548 33.672 91.4655 34.44 91.4655 35.976C91.4655 36.9147 91.1882 38.0667 90.6335 39.432C90.4628 39.9013 90.1428 40.648 89.6735 41.672C89.2468 42.6533 88.7988 43.7627 88.3295 45C87.9028 46.1947 87.5188 47.3467 87.1775 48.456C86.8362 49.5653 86.6655 50.4827 86.6655 51.208C86.6655 51.976 86.9002 52.36 87.3695 52.36C87.6682 52.36 88.0522 52.232 88.5215 51.976C89.0335 51.6773 89.6308 51.208 90.3135 50.568C91.5508 49.4587 92.7028 48.0507 93.7695 46.344C94.8788 44.6373 96.1802 42.3547 97.6735 39.496C97.6735 39.4107 97.7162 39.368 97.8015 39.368C97.9295 39.368 98.0575 39.432 98.1855 39.56C98.3135 39.688 98.3348 39.7947 98.2495 39.88C96.7135 42.8667 95.3055 45.3627 94.0255 47.368C92.7882 49.3307 91.5295 50.824 90.2495 51.848C89.0122 52.8293 87.6255 53.32 86.0895 53.32ZM96.9995 53.256C96.0182 53.256 95.3142 52.8933 94.8875 52.168C94.4608 51.4427 94.2475 50.5893 94.2475 49.608C94.2475 48.2853 94.5248 46.9627 95.0795 45.64C95.9755 43.2933 96.8075 41.2667 97.5755 39.56C98.3862 37.8533 99.1968 36.2107 100.007 34.632H98.2795C98.1088 34.632 98.0235 34.5467 98.0235 34.376C98.0235 34.248 98.0875 34.0987 98.2155 33.928C98.3435 33.7573 98.4928 33.672 98.6635 33.672H100.519L105.127 24.456C105.853 24.2853 106.621 24.0933 107.431 23.88C108.285 23.624 109.053 23.3467 109.735 23.048C109.053 24.2 108.114 25.7147 106.919 27.592C105.725 29.4267 104.509 31.4533 103.271 33.672H107.815C107.986 33.672 108.071 33.7573 108.071 33.928C108.071 34.056 108.007 34.2053 107.879 34.376C107.751 34.5467 107.602 34.632 107.431 34.632H102.695C101.373 36.9787 100.178 39.4107 99.1115 41.928C98.0875 44.4453 97.4048 46.8133 97.0635 49.032C97.0208 49.2027 96.9995 49.3947 96.9995 49.608C96.9995 49.7787 96.9995 49.928 96.9995 50.056C96.9995 51.208 97.3835 51.784 98.1515 51.784C98.6208 51.784 99.1542 51.592 99.7515 51.208C100.349 50.7813 100.925 50.2907 101.479 49.736C102.845 48.3707 104.018 46.856 104.999 45.192C106.023 43.528 106.962 41.8427 107.815 40.136C107.901 40.0507 107.965 40.008 108.007 40.008C108.306 40.008 108.455 40.1787 108.455 40.52C108.413 40.52 108.285 40.712 108.071 41.096C107.901 41.48 107.794 41.6933 107.751 41.736C106.983 43.2293 106.194 44.6587 105.383 46.024C104.573 47.3893 103.591 48.6907 102.439 49.928C101.799 50.6107 100.989 51.336 100.007 52.104C99.0262 52.872 98.0235 53.256 96.9995 53.256Z" fill="#FFA500"/>
<path d="M127.147 63.112C126.379 63.112 125.569 63.048 124.715 62.92C121.259 62.408 118.273 61.0853 115.755 58.952C113.281 56.8187 111.361 54.1947 109.995 51.08C108.673 47.9227 108.011 44.5947 108.011 41.096C108.011 38.2373 108.481 35.464 109.419 32.776C110.315 30.1733 111.467 27.6347 112.875 25.16C114.283 22.6853 116.075 20.36 118.251 18.184C120.427 16.008 123.094 14.0667 126.251 12.36C129.451 10.6533 133.292 9.26667 137.771 8.2C142.252 7.09067 147.521 6.408 153.58 6.152C154.177 6.10933 154.881 6.088 155.692 6.088C156.545 6.088 157.398 6.088 158.251 6.088C159.446 6.088 160.598 6.088 161.708 6.088C162.817 6.088 163.692 6.10933 164.332 6.152C164.673 6.152 164.844 6.32266 164.844 6.664C164.844 6.96267 164.673 7.112 164.332 7.112C162.796 7.15467 161.558 7.688 160.62 8.712C159.681 9.736 158.742 11.0587 157.804 12.68C157.292 13.7467 156.865 14.9627 156.524 16.328C158.7 17.0107 160.726 18.0987 162.604 19.592C164.481 21.0427 166.081 22.728 167.403 24.648C169.153 21.6613 170.966 18.76 172.843 15.944C174.764 13.128 176.726 10.568 178.731 8.264C181.121 5.53333 183.489 3.57067 185.836 2.376C188.182 1.13866 190.294 0.519997 192.172 0.519997C194.348 0.519997 196.097 1.224 197.42 2.632C198.785 3.99733 199.468 5.85333 199.468 8.2C199.468 10.6747 198.529 13.576 196.652 16.904C194.817 20.232 191.724 23.7093 187.372 27.336C185.196 29.128 182.721 30.728 179.948 32.136C177.217 33.5013 174.358 34.6533 171.371 35.592V36.552C171.371 39.4107 170.945 41.6293 170.091 43.208C169.238 44.7867 168.193 45.8747 166.956 46.472C165.761 47.0693 164.63 47.368 163.563 47.368C162.753 47.368 162.049 47.2613 161.451 47.048C160.897 46.792 160.577 46.5147 160.492 46.216V46.088C160.492 45.8747 160.598 45.768 160.812 45.768C161.025 45.7253 161.153 45.8107 161.195 46.024C161.238 46.0667 161.473 46.1733 161.9 46.344C162.326 46.5147 162.881 46.6 163.563 46.6C163.905 46.6 164.268 46.5787 164.652 46.536C165.036 46.4507 165.441 46.3227 165.868 46.152C167.062 45.6827 168.15 44.744 169.132 43.336C170.113 41.928 170.604 39.6667 170.604 36.552V35.848C168.044 36.616 165.398 37.192 162.667 37.576C162.241 38.216 161.814 38.856 161.388 39.496C160.961 40.0933 160.513 40.6907 160.044 41.288C158.081 44.0613 156.097 46.5787 154.091 48.84C152.086 51.1013 150.123 52.872 148.203 54.152C146.326 55.4747 144.556 56.0933 142.891 56.008C142.55 56.008 142.38 55.88 142.38 55.624C142.38 55.4533 142.465 55.304 142.636 55.176C144.3 54.024 145.644 52.5307 146.667 50.696C147.734 48.8613 148.566 46.8133 149.164 44.552C149.804 42.248 150.294 39.9013 150.636 37.512C147.862 37.0853 145.281 36.3813 142.891 35.4C140.502 34.376 138.603 33.0533 137.195 31.432C135.787 29.8107 135.147 27.912 135.275 25.736C135.446 23.304 136.214 21.32 137.579 19.784C138.945 18.248 140.651 17.1173 142.7 16.392C144.79 15.6667 146.966 15.304 149.228 15.304C150.081 15.304 150.913 15.3467 151.723 15.432C152.534 15.5173 153.345 15.6453 154.156 15.816C154.369 15.176 154.625 14.6213 154.924 14.152C155.563 13.0427 156.459 11.8053 157.611 10.44C158.764 9.032 160.044 8.02933 161.451 7.432C160.428 7.34666 159.382 7.28266 158.316 7.24C157.292 7.19733 156.246 7.176 155.18 7.176C150.529 7.176 145.921 7.66667 141.355 8.648C136.833 9.58667 132.566 11.1013 128.556 13.192C124.587 15.24 121.089 17.928 118.059 21.256C115.03 24.584 112.705 28.5947 111.083 33.288C110.102 36.1467 109.611 39.0053 109.611 41.864C109.611 45.1067 110.209 48.1787 111.403 51.08C112.641 53.9813 114.39 56.4133 116.651 58.376C118.913 60.3387 121.643 61.5547 124.844 62.024C125.228 62.0667 125.611 62.088 125.995 62.088C126.379 62.1307 126.763 62.152 127.147 62.152C129.878 62.152 132.395 61.512 134.699 60.232C137.003 58.952 138.518 57.032 139.243 54.472C139.286 54.2587 139.435 54.152 139.692 54.152C140.076 54.152 140.225 54.344 140.139 54.728C139.628 56.6053 138.71 58.1627 137.388 59.4C136.065 60.6373 134.507 61.5547 132.715 62.152C130.924 62.792 129.067 63.112 127.147 63.112ZM171.308 34.76C176.598 33.0533 181.334 30.536 185.516 27.208C188.502 24.8187 190.934 22.408 192.812 19.976C194.732 17.544 196.14 15.2613 197.035 13.128C197.974 10.952 198.444 9.05333 198.444 7.432C198.444 6.024 198.102 4.91466 197.42 4.104C196.737 3.25066 195.756 2.824 194.476 2.824C193.11 2.824 191.404 3.37866 189.355 4.488C187.35 5.59733 185.046 7.45333 182.444 10.056C180.182 12.36 177.942 15.048 175.724 18.12C173.505 21.192 171.329 24.3493 169.196 27.592C169.75 28.7013 170.198 29.8747 170.54 31.112C170.924 32.3067 171.18 33.5227 171.308 34.76ZM150.764 36.68C151.105 34.376 151.361 32.1147 151.532 29.896C151.745 27.6347 151.98 25.608 152.236 23.816C152.449 22.4507 152.683 21.1493 152.939 19.912C153.196 18.6747 153.516 17.5227 153.9 16.456C152.705 16.2 151.446 16.072 150.124 16.072C148.118 16.072 146.177 16.4133 144.299 17.096C142.465 17.736 140.95 18.7813 139.756 20.232C138.561 21.64 137.878 23.4747 137.708 25.736C137.579 27.6987 138.07 29.4267 139.18 30.92C140.289 32.4133 141.846 33.6507 143.852 34.632C145.857 35.5707 148.161 36.2533 150.764 36.68ZM155.116 37.128C155.969 37.1707 156.822 37.192 157.676 37.192C158.572 37.1493 159.446 37.0853 160.299 37C161.409 35.1653 162.497 33.2667 163.563 31.304C164.673 29.2987 165.825 27.3147 167.02 25.352C165.697 23.4747 164.118 21.8107 162.284 20.36C160.492 18.8667 158.529 17.7787 156.396 17.096C156.012 19.144 155.777 21.384 155.692 23.816C155.606 26.248 155.542 28.6373 155.5 30.984C155.5 33.288 155.372 35.336 155.116 37.128ZM163.243 36.68C164.481 36.4667 165.697 36.232 166.892 35.976C168.129 35.72 169.345 35.4 170.54 35.016C170.369 32.7547 169.75 30.536 168.684 28.36L163.243 36.68ZM147.563 53C149.441 52.3173 151.404 50.5893 153.451 47.816C155.5 45 157.633 41.6933 159.852 37.896C159.041 37.9387 158.23 37.9813 157.42 38.024C156.609 38.024 155.82 38.0027 155.052 37.96C154.625 40.6907 153.857 43.3573 152.748 45.96C151.638 48.5627 149.91 50.9093 147.563 53ZM179.268 53.64C177.433 53.64 176.132 53.0213 175.364 51.784C174.596 50.504 174.212 49.0533 174.212 47.432C174.212 46.4507 174.319 45.4907 174.532 44.552C174.745 43.6133 175.001 42.7387 175.3 41.928C175.769 40.776 176.431 39.56 177.284 38.28C178.18 36.9573 179.247 35.8267 180.484 34.888C181.721 33.9493 183.065 33.48 184.516 33.48C185.711 33.48 186.543 33.8213 187.012 34.504C187.481 35.144 187.716 35.9547 187.716 36.936C187.716 37.1067 187.716 37.2773 187.716 37.448C187.716 37.576 187.695 37.7467 187.652 37.96C187.524 39.112 187.076 40.3067 186.308 41.544C185.54 42.7813 184.58 43.8267 183.428 44.68C182.276 45.4907 181.039 45.896 179.716 45.896C178.948 45.896 178.265 45.6827 177.668 45.256C177.284 46.7067 177.092 48.0293 177.092 49.224C177.092 50.2053 177.263 51.016 177.604 51.656C177.988 52.296 178.564 52.616 179.332 52.616C180.228 52.616 181.295 52.232 182.532 51.464C183.812 50.6533 185.177 49.288 186.628 47.368C188.121 45.448 189.636 42.824 191.172 39.496C191.172 39.4533 191.215 39.432 191.3 39.432C191.428 39.432 191.556 39.496 191.684 39.624C191.855 39.7093 191.897 39.7947 191.812 39.88C189.721 44.616 187.503 48.0933 185.156 50.312C182.852 52.5307 180.889 53.64 179.268 53.64ZM179.396 44.872C180.335 44.872 181.252 44.5307 182.148 43.848C183.044 43.1227 183.855 42.2267 184.58 41.16C185.305 40.0507 185.881 38.9413 186.308 37.832C186.479 37.3627 186.564 36.8293 186.564 36.232C186.564 35.6773 186.457 35.208 186.244 34.824C186.073 34.3973 185.753 34.184 185.284 34.184C184.516 34.184 183.684 34.6747 182.788 35.656C181.892 36.5947 181.06 37.7253 180.292 39.048C179.524 40.328 178.948 41.5013 178.564 42.568C178.436 42.8667 178.308 43.1867 178.18 43.528C178.095 43.8267 178.009 44.1467 177.924 44.488C178.436 44.744 178.927 44.872 179.396 44.872ZM202.402 53.32C200.61 53.32 199.714 52.3173 199.714 50.312C199.714 49.544 199.863 48.6267 200.162 47.56C200.461 46.4933 200.93 45.32 201.57 44.04C201.911 43.3147 202.359 42.4613 202.914 41.48C203.511 40.456 204.045 39.4533 204.514 38.472C204.983 37.4907 205.218 36.7227 205.218 36.168C205.218 35.6133 204.919 35.336 204.322 35.336C203.511 35.336 202.658 35.784 201.762 36.68C200.909 37.5333 200.055 38.6427 199.202 40.008C198.349 41.3733 197.538 42.8027 196.77 44.296C196.002 45.7893 195.341 47.1973 194.786 48.52C194.231 49.8 193.826 50.7813 193.57 51.464C193.314 52.104 192.951 52.5093 192.482 52.68C192.013 52.8507 191.501 52.936 190.946 52.936C190.434 52.936 189.943 53.0213 189.474 53.192C190.071 51.8267 190.562 50.7173 190.946 49.864C191.33 49.0107 191.735 48.1573 192.162 47.304C192.589 46.408 193.101 45.2133 193.698 43.72C194.039 42.952 194.423 42.0773 194.85 41.096C195.277 40.072 195.639 39.0907 195.938 38.152C196.279 37.1707 196.45 36.4027 196.45 35.848C196.45 35.208 196.237 34.888 195.81 34.888C195.298 34.888 194.786 35.208 194.274 35.848C193.762 36.488 193.293 37.2133 192.866 38.024C192.482 38.792 192.162 39.4107 191.906 39.88C191.266 41.1173 190.626 42.3333 189.986 43.528C189.346 44.7227 188.621 45.8747 187.81 46.984H187.746C187.618 46.984 187.469 46.9413 187.298 46.856C187.17 46.7707 187.127 46.7067 187.17 46.664C187.895 45.512 188.578 44.36 189.218 43.208C189.901 42.056 190.519 40.904 191.074 39.752C191.543 38.856 192.055 37.9173 192.61 36.936C193.165 35.912 193.805 35.0587 194.53 34.376C195.255 33.6933 196.087 33.352 197.026 33.352C197.453 33.352 197.943 33.4587 198.498 33.672C199.095 33.928 199.394 34.504 199.394 35.4C199.394 35.8693 199.309 36.4453 199.138 37.128C198.967 37.8107 198.733 38.5787 198.434 39.432C199.543 37.8533 200.717 36.5093 201.954 35.4C203.191 34.248 204.322 33.672 205.346 33.672C206.967 33.672 207.778 34.44 207.778 35.976C207.778 36.9147 207.501 38.0667 206.946 39.432C206.775 39.9013 206.455 40.648 205.986 41.672C205.559 42.6533 205.111 43.7627 204.642 45C204.215 46.1947 203.831 47.3467 203.49 48.456C203.149 49.5653 202.978 50.4827 202.978 51.208C202.978 51.976 203.213 52.36 203.682 52.36C203.981 52.36 204.365 52.232 204.834 51.976C205.346 51.6773 205.943 51.208 206.626 50.568C207.863 49.4587 209.015 48.0507 210.082 46.344C211.191 44.6373 212.493 42.3547 213.986 39.496C213.986 39.4107 214.029 39.368 214.114 39.368C214.242 39.368 214.37 39.432 214.498 39.56C214.626 39.688 214.647 39.7947 214.562 39.88C213.026 42.8667 211.618 45.3627 210.338 47.368C209.101 49.3307 207.842 50.824 206.562 51.848C205.325 52.8293 203.938 53.32 202.402 53.32ZM216.576 53.32C214.912 53.32 214.08 52.424 214.08 50.632C214.08 49.1387 214.741 46.9627 216.064 44.104C216.448 43.336 216.875 42.4187 217.344 41.352C217.856 40.2853 218.283 39.2613 218.624 38.28C219.008 37.256 219.2 36.424 219.2 35.784C219.2 35.1867 218.987 34.888 218.56 34.888C218.048 34.888 217.536 35.208 217.024 35.848C216.512 36.488 216.043 37.2133 215.616 38.024C215.232 38.792 214.912 39.4107 214.656 39.88C214.016 41.1173 213.291 42.4613 212.48 43.912C211.669 45.3627 210.859 46.6427 210.048 47.752H209.984C209.899 47.752 209.771 47.7093 209.6 47.624C209.472 47.496 209.429 47.4107 209.472 47.368C210.283 46.2587 211.072 44.9787 211.84 43.528C212.651 42.0773 213.333 40.7547 213.888 39.56C214.357 38.664 214.848 37.7467 215.36 36.808C215.915 35.8267 216.555 35.016 217.28 34.376C218.005 33.6933 218.837 33.352 219.776 33.352C221.355 33.352 222.144 33.9707 222.144 35.208C222.144 36.0187 221.888 37.1067 221.376 38.472C220.864 39.8373 220.181 41.5653 219.328 43.656C218.56 45.448 217.984 46.9627 217.6 48.2C217.259 49.3947 217.088 50.3333 217.088 51.016C217.088 51.8267 217.365 52.232 217.92 52.232C218.517 52.232 219.477 51.6773 220.8 50.568C221.952 49.544 223.061 48.2853 224.128 46.792C225.195 45.256 226.347 43.1867 227.584 40.584C227.925 39.9013 228.267 39.048 228.608 38.024C228.992 36.9573 229.312 36.0187 229.568 35.208C229.867 34.3973 230.016 33.992 230.016 33.992C230.741 33.8213 231.552 33.608 232.448 33.352C233.344 33.0533 234.133 32.7547 234.816 32.456C234.389 32.8827 233.771 33.8427 232.96 35.336C232.192 36.8293 231.381 38.536 230.528 40.456C229.717 42.3333 229.013 44.168 228.416 45.96C227.691 48.008 227.328 49.6507 227.328 50.888C227.328 51.912 227.648 52.424 228.288 52.424C228.587 52.424 228.949 52.296 229.376 52.04C229.845 51.784 230.4 51.3787 231.04 50.824C231.595 50.3547 232.107 49.8 232.576 49.16C233.088 48.52 233.579 47.8587 234.048 47.176C234.688 46.2373 235.349 45.1493 236.032 43.912C236.757 42.6747 237.547 41.224 238.4 39.56C238.485 39.432 238.549 39.368 238.592 39.368C238.72 39.368 238.827 39.432 238.912 39.56C239.04 39.6453 239.083 39.7307 239.04 39.816C236.736 44.3387 234.709 47.7307 232.96 49.992C231.211 52.2107 229.312 53.32 227.264 53.32C226.453 53.32 225.856 53.0427 225.472 52.488C225.131 51.9333 224.96 51.1867 224.96 50.248C224.96 49.5227 225.045 48.712 225.216 47.816C225.387 46.92 225.621 46.0027 225.92 45.064C224.341 47.7947 222.827 49.864 221.376 51.272C219.925 52.6373 218.325 53.32 216.576 53.32ZM241.206 53.64C239.371 53.64 238.07 53.0213 237.302 51.784C236.534 50.504 236.15 49.0533 236.15 47.432C236.15 46.4507 236.256 45.4907 236.47 44.552C236.683 43.6133 236.939 42.7387 237.238 41.928C237.707 40.776 238.368 39.56 239.222 38.28C240.118 36.9573 241.184 35.8267 242.422 34.888C243.659 33.9493 245.003 33.48 246.454 33.48C247.648 33.48 248.48 33.8213 248.95 34.504C249.419 35.144 249.654 35.9547 249.654 36.936C249.654 37.1067 249.654 37.2773 249.654 37.448C249.654 37.576 249.632 37.7467 249.59 37.96C249.462 39.112 249.014 40.3067 248.246 41.544C247.478 42.7813 246.518 43.8267 245.366 44.68C244.214 45.4907 242.976 45.896 241.654 45.896C240.886 45.896 240.203 45.6827 239.606 45.256C239.222 46.7067 239.03 48.0293 239.03 49.224C239.03 50.2053 239.2 51.016 239.542 51.656C239.926 52.296 240.502 52.616 241.27 52.616C242.166 52.616 243.232 52.232 244.47 51.464C245.75 50.6533 247.115 49.288 248.566 47.368C250.059 45.448 251.574 42.824 253.11 39.496C253.11 39.4533 253.152 39.432 253.238 39.432C253.366 39.432 253.494 39.496 253.622 39.624C253.792 39.7093 253.835 39.7947 253.75 39.88C251.659 44.616 249.44 48.0933 247.094 50.312C244.79 52.5307 242.827 53.64 241.206 53.64ZM241.334 44.872C242.272 44.872 243.19 44.5307 244.086 43.848C244.982 43.1227 245.792 42.2267 246.518 41.16C247.243 40.0507 247.819 38.9413 248.246 37.832C248.416 37.3627 248.502 36.8293 248.502 36.232C248.502 35.6773 248.395 35.208 248.182 34.824C248.011 34.3973 247.691 34.184 247.222 34.184C246.454 34.184 245.622 34.6747 244.726 35.656C243.83 36.5947 242.998 37.7253 242.23 39.048C241.462 40.328 240.886 41.5013 240.502 42.568C240.374 42.8667 240.246 43.1867 240.118 43.528C240.032 43.8267 239.947 44.1467 239.862 44.488C240.374 44.744 240.864 44.872 241.334 44.872Z" fill="white"/>
</svg>
